<svg viewBox="0 0 18 18" fill="none" color="#2D374B" xmlns="http://www.w3.org/2000/svg">
    <path
        d="M8.43414 2.41328L3.93713 5.24349C3.76617 5.35104 3.62419 5.50576 3.52551 5.69207C3.42683 5.87837 3.37493 6.08971 3.375 6.30482L3.37782 11.9715C3.37794 12.1862 3.42989 12.3972 3.52845 12.5832C3.62701 12.7692 3.76871 12.9237 3.93936 13.0312L8.44162 15.8671C8.61253 15.9746 8.80638 16.0312 9.00373 16.0312C9.20108 16.0312 9.39495 15.9746 9.56586 15.8671L14.0629 13.0378C14.2339 12.9302 14.3758 12.7755 14.4745 12.5892C14.5732 12.4029 14.6251 12.1915 14.625 11.9764L14.6222 6.30978C14.6221 6.09502 14.5701 5.88407 14.4715 5.69809C14.373 5.51211 14.2313 5.35763 14.0606 5.25014L9.55841 2.41412C9.3875 2.3066 9.19362 2.25 8.99627 2.25C8.79893 2.25 8.60505 2.3066 8.43414 2.41412V2.41328Z"
        fill="currentColor" />
    <path
        d="M6.95091 13.9515C6.95784 13.9146 6.973 13.8801 6.99509 13.8511C8.34032 11.3639 9.68579 8.87677 11.0315 6.38978C11.0502 6.35524 11.0675 6.31976 11.0834 6.28882C11.0716 6.26632 11.0581 6.27097 11.0467 6.27097C10.4718 6.27319 9.89684 6.2772 9.32153 6.27646C9.29695 6.27599 9.27282 6.28373 9.25239 6.29864C9.23197 6.31356 9.21622 6.33494 9.20727 6.35989C8.77359 7.14137 8.33935 7.92263 7.90457 8.70369C6.98353 10.3595 6.06239 12.0153 5.14114 13.671C5.133 13.6857 5.12447 13.7001 5.1172 13.7152C5.10092 13.7494 5.08241 13.7548 5.04936 13.7339C4.9064 13.6419 4.7619 13.5529 4.61003 13.4577L8.70969 6.29325C8.70087 6.26411 8.68273 6.2714 8.66878 6.27087C8.44906 6.26369 8.22927 6.25334 8.00975 6.25123C7.70136 6.24127 7.39402 6.29524 7.10412 6.41027C6.84011 6.51679 6.61574 6.71528 6.46582 6.97493C5.71677 8.24797 4.96489 9.51903 4.21015 10.7881C4.19832 10.8082 4.18573 10.8278 4.17352 10.8477C4.13029 10.8477 4.13668 10.8088 4.1327 10.7817C4.12888 10.7408 4.12799 10.6997 4.13001 10.6586C4.13001 9.25495 4.13446 7.85125 4.12603 6.44765C4.11926 6.32671 4.14594 6.20633 4.20265 6.1021C4.25936 5.99787 4.34349 5.91459 4.44412 5.86302C5.43472 5.24766 6.41892 4.61963 7.40633 3.99804C7.84702 3.72062 8.28907 3.44583 8.72656 3.1626C8.80885 3.10244 8.9057 3.07031 9.0048 3.07031C9.1039 3.07031 9.20077 3.10244 9.28306 3.1626C10.0875 3.677 10.8991 4.17947 11.7077 4.68658C12.3175 5.06922 12.9277 5.4512 13.5382 5.8325C13.5819 5.85964 13.6244 5.88868 13.6683 5.9154C13.7397 5.95673 13.7987 6.01947 13.8384 6.0962C13.8781 6.17292 13.8969 6.26043 13.8924 6.34838C13.8936 7.87529 13.8936 9.40219 13.8924 10.9291C13.8952 10.9667 13.8915 11.0045 13.8813 11.0405C13.8329 11.0915 13.8154 11.0343 13.7977 11.0071C13.725 10.8957 13.6598 10.7784 13.5922 10.6631C13.0513 9.74045 12.5086 8.81904 11.964 7.89887C11.781 7.58787 11.5957 7.27813 11.4147 6.96585C11.3724 6.89299 11.3648 6.89193 11.3225 6.97018C11.0493 7.47385 10.7763 7.97762 10.5035 8.48149C10.4885 8.5095 10.482 8.54196 10.485 8.57421C10.488 8.60646 10.5003 8.63685 10.5201 8.66102C10.7451 9.05655 10.9697 9.45236 11.1938 9.84845L12.343 11.8739C12.498 12.1477 12.6534 12.4212 12.8089 12.6944C12.8378 12.731 12.8541 12.7775 12.8549 12.8258C12.8238 12.8931 12.7589 12.912 12.7049 12.9427C12.6164 13.0124 12.519 13.0678 12.4159 13.1071C12.3602 13.092 12.3405 13.0373 12.3142 12.9925C11.9584 12.3878 11.6072 11.7801 11.2537 11.1739C10.8902 10.5508 10.5284 9.92543 10.1633 9.30299C10.1165 9.22316 10.109 9.22263 10.065 9.30299C9.74738 9.88519 9.43415 10.4701 9.11577 11.0517C9.09949 11.079 9.09148 11.1111 9.09289 11.1436C9.0943 11.1761 9.10506 11.2073 9.12363 11.2327C9.55249 11.9529 9.97147 12.6795 10.3958 13.4033C10.5141 13.605 10.6333 13.806 10.7495 14.0092C10.7722 14.0487 10.8032 14.0881 10.7827 14.1415C10.6713 14.2359 10.5511 14.3173 10.4241 14.3844C10.0277 14.6357 9.63123 14.8866 9.23451 15.1371C9.17096 15.1818 9.09691 15.2056 9.02127 15.2056C8.94563 15.2056 8.8716 15.1818 8.80805 15.1371C8.2237 14.7688 7.63829 14.4021 7.05181 14.037C7.0114 14.0196 6.97641 13.9899 6.95091 13.9515Z"
        fill="#EAEBED" />
    <path
        d="M13.8632 11.057C13.8644 11.3577 13.8705 11.6589 13.8643 11.9593C13.866 12.0296 13.8498 12.0991 13.8175 12.1601C13.7852 12.221 13.738 12.271 13.6812 12.3046C13.4033 12.4761 13.1303 12.6573 12.8498 12.8242C12.7383 12.6024 12.6095 12.3912 12.4876 12.1757C11.8544 11.0575 11.2205 9.9398 10.5858 8.82278C10.5478 8.75583 10.513 8.68634 10.4706 8.62309C10.4568 8.60493 10.4492 8.58209 10.4492 8.55851C10.4492 8.53493 10.4568 8.51208 10.4706 8.49393C10.6221 8.21788 10.7711 7.94025 10.921 7.66303L11.3371 6.89381C11.3445 6.87552 11.3575 6.86058 11.3739 6.85156C11.4463 6.97311 11.5192 7.09572 11.5921 7.21843C12.0299 7.96119 12.4677 8.70395 12.9053 9.4467C13.202 9.95065 13.4988 10.4546 13.7955 10.9586C13.8118 10.9961 13.8348 11.0295 13.8632 11.057Z"
        fill="currentColor" />
    <path
        d="M12.4138 13.1008C12.2331 13.2301 12.0414 13.34 11.8551 13.4598C11.5173 13.6762 11.1775 13.8886 10.8385 14.1026C10.8191 14.1145 10.7998 14.1257 10.7811 14.1372C10.7768 14.103 10.7633 14.071 10.7423 14.0452C10.4405 13.5284 10.1387 13.0117 9.83679 12.495C9.58874 12.0708 9.33996 11.647 9.0905 11.2236C9.07361 11.2016 9.06381 11.1742 9.06262 11.1456C9.06143 11.1169 9.06892 11.0887 9.08392 11.0652C9.41738 10.4532 9.74946 9.84035 10.0801 9.22657C10.088 9.21242 10.0943 9.19595 10.1138 9.19141C10.1409 9.19806 10.1475 9.22763 10.1604 9.2497C10.7613 10.281 11.3622 11.3124 11.9631 12.3439C12.0909 12.5635 12.2182 12.7836 12.3468 13.0027C12.3632 13.0398 12.3858 13.0731 12.4136 13.101L12.4138 13.1008Z"
        fill="currentColor" />
</svg>