<svg viewBox="0 0 18 18" fill="none" color="#E84142" xmlns="http://www.w3.org/2000/svg">
    <path
        d="M3.83749 14.625H5.91828C6.4082 14.625 6.65314 14.625 6.87176 14.563C7.11145 14.49 7.33007 14.3606 7.51181 14.1825C7.67871 14.0196 7.79915 13.8037 8.03673 13.3779L8.03688 13.3776L8.04386 13.3651L10.7426 8.47869C10.9823 8.04973 11.1008 7.83389 11.1535 7.60727C11.2114 7.36176 11.2114 7.10277 11.1535 6.85726C11.1012 6.63235 10.9815 6.41806 10.7453 5.9955L10.74 5.98586L9.68374 4.09735C9.46514 3.70346 9.35451 3.50651 9.21491 3.43368C9.06478 3.35544 8.88566 3.35544 8.73553 3.43368C8.59593 3.50651 8.48532 3.70346 8.2667 4.09735L3.12898 13.3732C2.913 13.7617 2.805 13.956 2.81291 14.1151C2.82344 14.2878 2.91036 14.4443 3.05259 14.5387C3.18428 14.625 3.40026 14.625 3.83749 14.625Z"
        fill="currentColor" />
    <path
        d="M14.1545 14.625H11.173C10.7331 14.625 10.5119 14.625 10.3828 14.5387C10.2406 14.4443 10.1536 14.2852 10.1431 14.1125C10.1353 13.9545 10.2441 13.7621 10.4619 13.377L10.462 13.3769L10.4671 13.3679L11.9552 10.7509C12.1739 10.3651 12.2845 10.1736 12.4214 10.1007C12.5715 10.0225 12.7481 10.0225 12.8981 10.1007C13.0341 10.1717 13.14 10.3551 13.3497 10.7182L13.35 10.7188L13.367 10.7482L14.8605 13.3651L14.882 13.4032L14.882 13.4032C15.089 13.7691 15.1947 13.9558 15.1871 14.1098C15.1791 14.2824 15.0896 14.4416 14.9474 14.5361C14.8156 14.625 14.5944 14.625 14.1545 14.625Z"
        fill="currentColor" />
</svg>