<svg viewBox="0 0 18 18" fill="none" color="#D29C17" xmlns="http://www.w3.org/2000/svg">
    <path
        d="M5.3644 4.14439L9.12507 2L12.8857 4.14439L11.5031 4.93658L9.12507 3.58438L6.74689 4.93658L5.3644 4.14439ZM12.8857 6.84878L11.5031 6.05658L9.12507 7.40881L6.74689 6.05658L5.3644 6.84878V8.43319L7.74244 9.78529V12.4898L9.12507 13.282L10.5077 12.4898V9.78529L12.8857 8.43319V6.84878ZM12.8857 11.1375V9.55312L11.5031 10.3453V11.9297L12.8857 11.1375ZM13.8674 11.6976L11.4893 13.0497V14.6341L15.25 12.4898V8.20102L13.8674 8.99309V11.6976ZM12.4847 5.49654L13.8674 6.28875V7.87316L15.25 7.08095V5.49654L13.8674 4.70438L12.4847 5.49654ZM7.74244 13.6234V15.2078L9.12507 16L10.5077 15.2078V13.6234L9.12507 14.4156L7.74244 13.6234ZM5.3644 11.1375L6.74689 11.9297V10.3453L5.3644 9.55312V11.1375ZM7.74244 5.49654L9.12507 6.28875L10.5077 5.49654L9.12507 4.70438L7.74244 5.49654ZM4.38263 6.28875L5.76526 5.49654L4.38263 4.70438L3 5.49654V7.08095L4.38263 7.87316V6.28875ZM4.38263 8.99309L3 8.20102V12.4898L6.76081 14.6341V13.0497L4.38263 11.6976V8.99309Z"
        fill="currentColor" />
</svg>