<svg viewBox="0 0 18 18" fill="none" color="#1969FF" xmlns="http://www.w3.org/2000/svg">
    <path
        d="M8.46796 2.37932C8.79608 2.20689 9.29533 2.20689 9.62345 2.37932L12.9716 4.13877C13.1692 4.24261 13.2777 4.39735 13.2971 4.5571H13.3003V13.401C13.296 13.5752 13.1864 13.7483 12.9716 13.8613L9.62345 15.6207C9.29533 15.7931 8.79608 15.7931 8.46796 15.6207L5.11987 13.8613C4.90589 13.7488 4.80321 13.5745 4.79813 13.401C4.79762 13.3839 4.79756 13.3697 4.79804 13.3579L4.79802 4.6139C4.79768 4.60433 4.79765 4.59476 4.79792 4.58524L4.79813 4.5571L4.79962 4.55709C4.81449 4.39559 4.9181 4.2448 5.11987 4.13877L8.46796 2.37932ZM12.7733 9.49106L9.62345 11.1463C9.29533 11.3187 8.79608 11.3187 8.46796 11.1463L5.32505 9.49475V13.3835L8.46796 15.0264C8.64544 15.1208 8.82964 15.2127 9.00975 15.2245L9.04571 15.2256C9.23339 15.2262 9.4156 15.1314 9.60037 15.0417L12.7733 13.3694V9.49106ZM4.25356 13.2087C4.25356 13.5475 4.29314 13.7702 4.37173 13.9272C4.43687 14.0572 4.5346 14.1566 4.71305 14.2776L4.72324 14.2844C4.76241 14.3107 4.80555 14.3382 4.85806 14.3705L4.91999 14.4082L5.11016 14.5225L4.83741 14.9711L4.62456 14.8432L4.58878 14.8213C4.52724 14.7835 4.47623 14.7511 4.42865 14.7191C3.92004 14.378 3.73036 14.0061 3.72662 13.2323L3.72656 13.2087H4.25356ZM8.78213 7.12063C8.75776 7.12896 8.73492 7.13859 8.71409 7.14954L5.36599 8.90899C5.36248 8.91084 5.35912 8.91266 5.35594 8.91447L5.3531 8.91611L5.35835 8.9191L5.36599 8.92322L8.71409 10.6827C8.73492 10.6936 8.75776 10.7032 8.78213 10.7116V7.12063ZM9.30929 7.12063V10.7116C9.33366 10.7032 9.3565 10.6936 9.37732 10.6827L12.7254 8.92322C12.7289 8.92137 12.7323 8.91955 12.7355 8.91775L12.7383 8.91611L12.7331 8.91312L12.7254 8.90899L9.37732 7.14954C9.3565 7.13859 9.33366 7.12896 9.30929 7.12063ZM12.7733 5.18446L9.76982 6.7628L12.7733 8.34114V5.18446ZM5.32505 5.18815V8.33745L8.32152 6.7628L5.32505 5.18815ZM9.37732 2.84296C9.20322 2.75146 8.8882 2.75146 8.71409 2.84296L5.36599 4.60242C5.36248 4.60426 5.35912 4.60609 5.35594 4.60789L5.3531 4.60953L5.35835 4.61252L5.36599 4.61665L8.71409 6.3761C8.8882 6.46759 9.20322 6.46759 9.37732 6.3761L12.7254 4.61665C12.7289 4.6148 12.7323 4.61297 12.7355 4.61116L12.7383 4.60953L12.7331 4.60653L12.7254 4.60242L9.37732 2.84296ZM13.2681 3.0359L13.4809 3.16381L13.5167 3.18566C13.5782 3.22346 13.6292 3.25593 13.6768 3.28785C14.1854 3.629 14.3751 4.00096 14.3788 4.77472L14.3789 4.79829H13.8519C13.8519 4.45944 13.8123 4.23674 13.7337 4.07983C13.6686 3.94979 13.5709 3.8504 13.3924 3.72947L13.3822 3.72261C13.3431 3.69634 13.2999 3.66882 13.2474 3.63647L13.1855 3.59873L12.9953 3.48455L13.2681 3.0359Z"
        fill="currentColor" stroke="#1969FF" stroke-width="0.3" />
</svg>