<?xml version="1.0" encoding="UTF-8"?>
<!DOCTYPE svg PUBLIC "-//W3C//DTD SVG 1.1//EN" "http://www.w3.org/Graphics/SVG/1.1/DTD/svg11.dtd">
<svg xmlns="http://www.w3.org/2000/svg" version="1.1" width="256px" height="256px" style="shape-rendering:geometricPrecision; text-rendering:geometricPrecision; image-rendering:optimizeQuality; fill-rule:evenodd; clip-rule:evenodd" xmlns:xlink="http://www.w3.org/1999/xlink">
<g><path style="opacity:1" fill="#defd07" d="M 111.5,11.5 C 171.175,7.40636 213.342,32.4064 238,86.5C 255.444,144.501 239.944,191.334 191.5,227C 164.627,243.507 135.627,248.84 104.5,243C 63.8659,233.609 35.3659,209.776 19,171.5C 1.99276,120.364 12.8261,76.1975 51.5,39C 69.18,24.6583 89.18,15.4916 111.5,11.5 Z"/></g>
<g><path style="opacity:1" fill="#020201" d="M 101.5,72.5 C 109.265,92.9536 116.765,113.62 124,134.5C 124.5,141.158 124.666,147.825 124.5,154.5C 126.948,155.473 129.615,155.806 132.5,155.5C 132.5,148.833 132.5,142.167 132.5,135.5C 139.359,114.756 146.526,94.0893 154,73.5C 166.42,72.5112 178.92,72.1779 191.5,72.5C 191.5,109.5 191.5,146.5 191.5,183.5C 183.5,183.5 175.5,183.5 167.5,183.5C 167.5,164.5 167.5,145.5 167.5,126.5C 170.114,116.542 173.114,106.709 176.5,97C 174.198,94.9987 171.698,94.4987 169,95.5C 158.599,124.871 148.099,154.205 137.5,183.5C 131.202,184.496 124.868,184.83 118.5,184.5C 108.64,155.422 98.4736,126.422 88,97.5C 85.5906,93.7724 82.7572,93.6058 79.5,97C 83.0481,106.686 86.2148,116.519 89,126.5C 89.4999,145.497 89.6666,164.497 89.5,183.5C 81.5,183.5 73.5,183.5 65.5,183.5C 65.5,146.5 65.5,109.5 65.5,72.5C 77.5,72.5 89.5,72.5 101.5,72.5 Z"/></g>
<g><path style="opacity:1" fill="#4b5124" d="M 101.5,72.5 C 89.5,72.5 77.5,72.5 65.5,72.5C 65.5,109.5 65.5,146.5 65.5,183.5C 73.5,183.5 81.5,183.5 89.5,183.5C 81.3501,184.493 73.0168,184.826 64.5,184.5C 64.5,146.833 64.5,109.167 64.5,71.5C 77.0113,71.1714 89.3446,71.5048 101.5,72.5 Z"/></g>
<g><path style="opacity:1" fill="#3c430f" d="M 167.5,126.5 C 167.5,145.5 167.5,164.5 167.5,183.5C 175.5,183.5 183.5,183.5 191.5,183.5C 183.35,184.493 175.017,184.826 166.5,184.5C 166.17,164.993 166.503,145.659 167.5,126.5 Z"/></g>
<g><path style="opacity:1" fill="#616a24" d="M 132.5,135.5 C 132.5,142.167 132.5,148.833 132.5,155.5C 129.615,155.806 126.948,155.473 124.5,154.5C 126.833,154.5 129.167,154.5 131.5,154.5C 131.177,147.978 131.51,141.645 132.5,135.5 Z"/></g>
</svg>
