<svg viewBox="0 0 18 18" fill="none" color="#FD3A50" xmlns="http://www.w3.org/2000/svg">
<path d="M4.26281 13.5504C3.3041 13.5504 2.51863 13.3131 1.90635 12.8387C1.30212 12.3558 1 11.6696 1 10.78C1 10.5936 1.02016 10.3648 1.06041 10.0937C1.16519 9.48372 1.31422 8.75084 1.50756 7.89516C2.05538 5.56531 3.46929 4.40039 5.74924 4.40039C6.36957 4.40039 6.92544 4.51052 7.4169 4.73077C7.90836 4.94255 8.29504 5.26453 8.577 5.69664C8.85896 6.12021 9 6.62858 9 7.2216C9 7.39953 8.97984 7.62405 8.93952 7.89516C8.8187 8.64918 8.67367 9.38206 8.50448 10.0937C8.22252 11.2544 7.73512 12.1228 7.04226 12.6989C6.34941 13.2665 5.42297 13.5504 4.26281 13.5504ZM4.43199 11.7204C4.8832 11.7204 5.26582 11.5806 5.58005 11.301C5.90232 11.0214 6.13192 10.5936 6.26884 10.0175C6.45413 9.22107 6.59518 8.52632 6.69185 7.93329C6.72405 7.75537 6.74015 7.57325 6.74015 7.38679C6.74015 6.61584 6.35746 6.23034 5.59216 6.23034C5.14095 6.23034 4.75427 6.37013 4.43199 6.64971C4.11783 6.92936 3.89223 7.3572 3.75531 7.93329C3.61027 8.50092 3.46523 9.19567 3.32026 10.0175C3.288 10.1869 3.27189 10.3648 3.27189 10.5512C3.27189 11.3307 3.65864 11.7204 4.43199 11.7204Z" fill="currentColor"/>
<path d="M9.24183 13.5504C9.15563 13.5504 9.08897 13.5199 9.04199 13.4589C9.00277 13.3891 8.99106 13.3107 9.00672 13.2236L10.6289 4.72718C10.6445 4.63132 10.6876 4.55288 10.7582 4.49186C10.8287 4.4309 10.9031 4.40039 10.9815 4.40039H14.1083C14.9782 4.40039 15.6756 4.60081 16.2006 5.00165C16.7336 5.40256 17 5.98201 17 6.74015C17 6.95799 16.9765 7.1846 16.9295 7.41985C16.7336 8.42202 16.3378 9.16275 15.7422 9.64203C15.1545 10.1213 14.3473 10.3609 13.3207 10.3609H11.7338L11.1931 13.2236C11.1774 13.3195 11.1343 13.3978 11.0638 13.4589C10.9933 13.5199 10.9188 13.5504 10.8405 13.5504H9.24183ZM13.403 8.5571C13.7321 8.5571 14.0182 8.45686 14.2611 8.25644C14.5119 8.05602 14.6764 7.76845 14.7548 7.39373C14.7783 7.24556 14.7901 7.11487 14.7901 7.0016C14.7901 6.74886 14.7235 6.55715 14.5903 6.42646C14.457 6.287 14.2298 6.21733 13.9085 6.21733H12.4979L12.0512 8.5571H13.403Z" fill="currentColor"/>
</svg>
