<svg viewBox="0 0 18 18" fill="none" color="#8247E5" xmlns="http://www.w3.org/2000/svg">
    <path
        d="M12.1826 6.81343C11.9564 6.6799 11.6656 6.6799 11.4071 6.81343L9.59775 7.91506L8.36994 8.6161L6.59285 9.71773C6.36668 9.85126 6.07588 9.85126 5.8174 9.71773L4.42804 8.84978C4.20186 8.71625 4.04031 8.44918 4.04031 8.14874V6.4796C4.04031 6.21254 4.16955 5.94547 4.42804 5.77856L5.8174 4.94399C6.04357 4.81046 6.33437 4.81046 6.59285 4.94399L7.98221 5.81194C8.20839 5.94547 8.36994 6.21254 8.36994 6.51298V7.61461L9.59775 6.88019V5.74518C9.59775 5.47812 9.46851 5.21105 9.21002 5.04414L6.62516 3.47515C6.39899 3.34162 6.10819 3.34162 5.84971 3.47515L3.20023 5.07752C2.94174 5.21105 2.8125 5.47812 2.8125 5.74518V8.88316C2.8125 9.15022 2.94174 9.41728 3.20023 9.5842L5.8174 11.1532C6.04357 11.2867 6.33437 11.2867 6.59285 11.1532L8.36994 10.0849L9.59775 9.35052L11.3748 8.28227C11.601 8.14874 11.8918 8.14874 12.1503 8.28227L13.5397 9.11684C13.7658 9.25037 13.9274 9.51743 13.9274 9.81788V11.487C13.9274 11.7541 13.7981 12.0211 13.5397 12.1881L12.1826 13.0226C11.9564 13.1562 11.6656 13.1562 11.4071 13.0226L10.0178 12.1881C9.79161 12.0545 9.63006 11.7875 9.63006 11.487V10.4188L8.40225 11.1532V12.2548C8.40225 12.5219 8.5315 12.7889 8.78998 12.9559L11.4071 14.5249C11.6333 14.6584 11.9241 14.6584 12.1826 14.5249L14.7998 12.9559C15.0259 12.8223 15.1875 12.5553 15.1875 12.2548V9.08346C15.1875 8.81639 15.0583 8.54933 14.7998 8.38242L12.1826 6.81343Z"
        fill="currentColor" />
</svg>